<svg xmlns="http://www.w3.org/2000/svg" xmlns:xlink="http://www.w3.org/1999/xlink" xmlns:serif="http://www.serif.com/" version="1.1" xml:space="preserve" style="fill-rule:evenodd;clip-rule:evenodd;stroke-linejoin:round;stroke-miterlimit:2;" viewBox="115.04 70.71 1254.69 332.71">
    <g>
        <g transform="matrix(-0.142562,-0.100132,0.101071,-0.143899,245.224763,752.111897)">
            <path d="M1579.183,3427.622L1583.546,3206.58L1645.464,3191.863L1712.119,3320.811L1713.664,3175.654L1775.582,3160.938L1879.2,3356.315L1824.461,3369.325L1757.581,3225.075L1756.86,3385.393L1700.626,3398.758L1628.062,3255.858L1634.221,3414.541L1579.183,3427.622Z" style="fill:rgb(68,114,71);fill-rule:nonzero;"/>
            <path d="M1430.554,3411.432L1446.941,3198.114L1499.39,3202.068L1483.004,3415.386L1430.554,3411.432Z" style="fill:rgb(68,114,71);fill-rule:nonzero;"/>
            <path d="M1223.995,3138.715L1273.925,3155.111L1315.527,3307.789L1357.433,3182.533L1407.363,3198.929L1339.422,3402L1289.492,3385.604L1248.084,3232.347L1205.984,3358.181L1156.055,3341.785L1223.995,3138.715Z" style="fill:rgb(68,114,71);fill-rule:nonzero;"/>
            <path d="M875.989,3139.337L904.037,3108.176L946.74,3145.902L1062.411,3017.392L1101.67,3052.075L985.999,3180.585L1028.702,3218.311L1000.654,3249.472L875.989,3139.337Z" style="fill:rgb(68,114,71);fill-rule:nonzero;"/>
            <path d="M719.538,2911.279L904.522,2800.909L931.659,2845.551L855.505,2890.988L897.718,2960.431L973.873,2914.994L1001.01,2959.636L816.025,3070.006L788.888,3025.364L861.353,2982.128L819.14,2912.685L746.675,2955.921L719.538,2911.279Z" style="fill:rgb(68,114,71);fill-rule:nonzero;"/>
            <path d="M711.817,2755.797L754.15,2745.13L736.787,2677.496L776.138,2667.58L793.501,2735.215L839.411,2723.647L819.774,2647.152L860.616,2636.861L893.218,2763.861L683.94,2816.592L651.338,2689.592L692.18,2679.302L711.817,2755.797Z" style="fill:rgb(68,114,71);fill-rule:nonzero;"/>
            <path d="M659.795,2326.221L873.91,2353.979L867.085,2405.651L778.938,2394.223L768.322,2474.602L856.469,2486.029L849.644,2537.701L635.528,2509.943L642.353,2458.271L726.231,2469.145L736.847,2388.767L652.97,2377.893L659.795,2326.221Z" style="fill:rgb(68,114,71);fill-rule:nonzero;"/>
            <path d="M933.035,2227.113C923.735,2244.992 911.017,2259.24 894.881,2269.858C878.746,2280.476 860.881,2286.325 841.285,2287.406C821.69,2288.486 802.505,2284.234 783.729,2274.647C764.954,2265.061 750.37,2252.073 739.979,2235.682C729.587,2219.291 724.074,2201.506 723.439,2182.325C722.804,2163.145 727.137,2144.615 736.437,2126.736C745.738,2108.857 758.456,2094.609 774.591,2083.991C790.727,2073.373 808.499,2067.591 827.909,2066.645C847.319,2065.698 866.412,2070.018 885.188,2079.604C903.964,2089.191 918.616,2102.157 929.146,2118.504C939.675,2134.851 945.281,2152.569 945.963,2171.659C946.645,2190.75 942.336,2209.234 933.035,2227.113ZM890.38,2205.334C898.271,2190.164 899.485,2175.413 894.021,2161.081C888.557,2146.749 877.439,2135.302 860.669,2126.74C843.716,2118.084 827.809,2115.734 812.948,2119.688C798.087,2123.643 786.71,2133.205 778.819,2148.375C770.834,2163.726 769.482,2178.521 774.764,2192.76C780.046,2206.999 791.254,2218.492 808.389,2227.241C825.342,2235.897 841.249,2238.247 856.11,2234.292C870.972,2230.338 882.395,2220.685 890.38,2205.334Z" style="fill:rgb(68,114,71);fill-rule:nonzero;"/>
            <path d="M892.674,1915.757L981.286,2008.902C990.148,2018.216 999.283,2023.227 1008.691,2023.934C1018.1,2024.641 1027.281,2020.814 1036.235,2012.453C1045.189,2004.092 1049.663,1995.169 1049.656,1985.683C1049.649,1976.197 1045.215,1966.797 1036.354,1957.482L947.742,1864.338L986.02,1828.595L1074.421,1921.518C1087.643,1935.416 1095.84,1949.956 1099.013,1965.14C1102.187,1980.325 1101.057,1995.059 1095.626,2009.344C1090.194,2023.629 1081.285,2036.554 1068.898,2048.12C1056.512,2059.686 1043.146,2067.63 1028.8,2071.952C1014.453,2076.275 999.838,2076.241 984.955,2071.852C970.071,2067.464 956.018,2058.32 942.797,2044.423L854.396,1951.5L892.674,1915.757Z" style="fill:rgb(68,114,71);fill-rule:nonzero;"/>
            <path d="M1237.934,1932.632C1223.735,1939.478 1209.89,1943.329 1196.399,1944.185C1182.907,1945.041 1170.598,1942.616 1159.47,1936.91C1148.342,1931.204 1139.498,1922.137 1132.937,1909.71L1183.277,1885.438C1187.514,1892.207 1192.674,1896.442 1198.754,1898.142C1204.835,1899.842 1211.287,1899.047 1218.109,1895.758C1225.116,1892.379 1229.863,1888.114 1232.349,1882.961C1234.835,1877.808 1234.687,1872.4 1231.906,1866.737C1229.572,1861.987 1226.029,1858.837 1221.277,1857.288C1216.525,1855.738 1211.304,1855.092 1205.615,1855.35C1199.925,1855.607 1192.119,1856.546 1182.196,1858.167C1167.773,1860.377 1155.655,1861.475 1145.841,1861.461C1136.028,1861.448 1126.423,1859.074 1117.028,1854.34C1107.632,1849.607 1099.973,1841.211 1094.05,1829.154C1085.256,1811.251 1084.914,1794.074 1093.026,1777.623C1101.137,1761.172 1115.703,1747.879 1136.724,1737.744C1158.114,1727.431 1177.845,1724.187 1195.918,1728.014C1213.99,1731.84 1227.93,1742.574 1237.736,1760.215L1186.566,1784.886C1183.146,1778.853 1178.441,1775.078 1172.45,1773.56C1166.459,1772.043 1160.144,1772.884 1153.506,1776.085C1147.79,1778.841 1143.92,1782.571 1141.898,1787.274C1139.875,1791.978 1140.254,1797.161 1143.036,1802.824C1146.087,1809.035 1151.416,1812.454 1159.022,1813.08C1166.627,1813.706 1177.687,1813.005 1192.2,1810.979C1206.802,1809.135 1218.965,1808.242 1228.686,1808.3C1238.407,1808.358 1247.921,1810.662 1257.226,1815.213C1266.532,1819.764 1274.012,1827.794 1279.666,1839.303C1285.05,1850.264 1287.129,1861.576 1285.902,1873.239C1284.675,1884.902 1280.015,1895.961 1271.923,1906.415C1263.831,1916.87 1252.501,1925.609 1237.934,1932.632Z" style="fill:rgb(68,114,71);fill-rule:nonzero;"/>
            <path d="M1360.978,1709.504L1368.771,1752.085L1438.083,1739.633L1445.327,1779.215L1376.015,1791.666L1384.467,1837.845L1462.859,1823.763L1470.378,1864.843L1340.229,1888.223L1301.702,1677.721L1431.851,1654.341L1439.37,1695.422L1360.978,1709.504Z" style="fill:rgb(68,114,71);fill-rule:nonzero;"/>
            <path d="M1794.621,1688.214L1693.148,1814.283L1679.25,1883.632L1627.657,1873.483L1641.554,1804.135L1596.392,1649.223L1654.925,1660.736L1678.347,1756.689L1736.691,1676.82L1794.621,1688.214Z" style="fill:rgb(68,114,71);fill-rule:nonzero;"/>
            <path d="M1860.789,1959.587C1843.326,1949.329 1829.723,1935.906 1819.982,1919.319C1810.24,1902.731 1805.406,1884.716 1805.479,1865.273C1805.553,1845.83 1810.976,1827.109 1821.749,1809.109C1832.521,1791.109 1846.473,1777.457 1863.605,1768.152C1880.736,1758.847 1898.984,1754.45 1918.348,1754.959C1937.712,1755.469 1956.125,1760.853 1973.588,1771.111C1991.052,1781.369 2004.654,1794.792 2014.395,1811.379C2024.137,1827.967 2028.909,1845.886 2028.711,1865.138C2028.514,1884.39 2023.029,1903.016 2012.256,1921.016C2001.483,1939.016 1987.549,1952.738 1970.454,1962.182C1953.358,1971.626 1935.172,1976.119 1915.897,1975.661C1896.621,1975.203 1878.252,1969.845 1860.789,1959.587ZM1885.263,1918.694C1900.08,1927.398 1914.871,1929.473 1929.636,1924.919C1944.401,1920.365 1956.595,1910.05 1966.217,1893.972C1975.944,1877.719 1979.255,1862.127 1976.152,1847.196C1973.049,1832.264 1964.089,1820.446 1949.271,1811.742C1934.278,1802.935 1919.451,1800.72 1904.79,1805.099C1890.13,1809.478 1877.884,1819.881 1868.052,1836.309C1858.326,1852.561 1855.014,1868.153 1858.117,1883.085C1861.22,1898.017 1870.269,1909.886 1885.263,1918.694Z" style="fill:rgb(68,114,71);fill-rule:nonzero;"/>
            <path d="M2177.255,1938.863L2077.977,2020.77C2068.049,2028.961 2062.44,2037.687 2061.151,2046.947C2059.861,2056.207 2063.153,2065.521 2071.027,2074.888C2078.901,2084.255 2087.616,2089.226 2097.174,2089.802C2106.731,2090.377 2116.473,2086.57 2126.401,2078.379L2225.679,1996.471L2259.34,2036.516L2160.299,2118.229C2145.486,2130.45 2130.333,2137.663 2114.841,2139.869C2099.349,2142.075 2084.573,2140.055 2070.515,2133.807C2056.456,2127.559 2043.981,2117.956 2033.089,2104.998C2022.197,2092.04 2015.014,2078.336 2011.539,2063.884C2008.065,2049.433 2008.996,2034.983 2014.331,2020.535C2019.666,2006.086 2029.739,1992.752 2044.552,1980.531L2143.594,1898.818L2177.255,1938.863Z" style="fill:rgb(68,114,71);fill-rule:nonzero;"/>
            <path d="M2193.675,2301.958L2215.343,2366.759L2176.799,2379.41L2138.589,2265.14L2343.574,2197.863L2360.116,2247.332L2193.675,2301.958Z" style="fill:rgb(68,114,71);fill-rule:nonzero;"/>
            <path d="M2189.242,2505.381C2188.381,2485.285 2192.305,2466.666 2201.012,2449.524C2209.72,2432.382 2222.315,2418.533 2238.796,2407.978C2255.278,2397.422 2274.071,2391.701 2295.174,2390.814C2316.277,2389.927 2335.44,2394.053 2352.663,2403.192C2369.885,2412.33 2383.567,2425.075 2393.709,2441.425C2403.851,2457.775 2409.352,2475.997 2410.213,2496.093C2411.073,2516.188 2407.15,2534.807 2398.442,2551.95C2389.734,2569.092 2377.187,2582.837 2360.799,2593.185C2344.411,2603.533 2325.665,2609.15 2304.562,2610.037C2283.458,2610.924 2264.246,2606.852 2246.926,2597.819C2229.606,2588.786 2215.877,2576.145 2205.739,2559.897C2195.601,2543.648 2190.102,2525.476 2189.242,2505.381ZM2237.185,2503.366C2237.915,2520.416 2244.237,2533.826 2256.15,2543.594C2268.062,2553.363 2283.443,2557.851 2302.293,2557.059C2321.348,2556.258 2336.341,2550.493 2347.273,2539.764C2358.206,2529.036 2363.307,2515.146 2362.576,2498.095C2361.838,2480.841 2355.614,2467.326 2343.907,2457.549C2332.199,2447.772 2316.715,2443.288 2297.456,2444.098C2278.401,2444.899 2263.408,2450.663 2252.475,2461.392C2241.543,2472.121 2236.446,2486.112 2237.185,2503.366Z" style="fill:rgb(68,114,71);fill-rule:nonzero;"/>
            <path d="M2336.022,2899.275L2152.246,2763.711L2171.647,2701.391L2400.571,2691.93L2384.071,2744.931L2212.505,2748L2352.431,2846.565L2336.022,2899.275Z" style="fill:rgb(68,114,71);fill-rule:nonzero;"/>
            <path d="M2228.76,2993.616L2192.519,2969.459L2153.196,3027.362L2119.507,3004.906L2158.83,2947.004L2119.526,2920.806L2075.052,2986.294L2040.087,2962.988L2113.923,2854.262L2293.088,2973.685L2219.252,3082.41L2184.286,3059.104L2228.76,2993.616Z" style="fill:rgb(68,114,71);fill-rule:nonzero;"/>
            <path d="M2029.848,3094.998C2020.505,3101.666 2012.855,3109.815 2006.898,3119.445C2001.173,3128.543 1997.344,3138.977 1995.413,3150.748C1993.468,3162.161 1993.792,3173.299 1996.385,3184.164C1998.883,3194.729 2003.644,3204.842 2010.667,3214.501C2003.82,3205.083 1995.606,3197.435 1986.026,3191.557C1977.122,3185.929 1966.56,3182.096 1954.341,3180.057C1943.042,3178.095 1931.84,3178.387 1920.733,3180.933C1909.708,3183.421 1899.483,3188.028 1890.059,3194.754C1899.483,3188.028 1907.133,3179.88 1913.008,3170.308C1918.964,3160.678 1922.793,3150.244 1924.494,3139.005C1926.354,3126.796 1926.03,3115.657 1923.522,3105.588C1920.87,3094.643 1916.15,3084.502 1909.362,3075.164C1916.326,3084.743 1924.499,3092.42 1933.881,3098.196C1943.403,3103.993 1953.964,3107.827 1965.565,3109.695C1977.446,3111.609 1988.649,3111.317 1999.173,3108.819C2010.28,3106.273 2020.505,3101.666 2029.848,3094.998Z" style="fill:rgb(68,114,71);fill-rule:nonzero;"/>
        </g>
        <g transform="matrix(0.04912,0,0,0.04912,283.696998,237.002211)">
            <g transform="matrix(1,0,0,1,-1041.666667,-1041.666667)">
                <g transform="matrix(5.555556,0,0,5.555556,0,0.000025)">
                    <g>
                        <clipPath id="_clip1">
                            <path d="M187.5,131.25C156.434,131.25 131.25,156.434 131.25,187.5C131.25,218.566 156.434,243.75 187.5,243.75C218.566,243.75 243.75,218.566 243.75,187.5C243.75,156.434 218.566,131.25 187.5,131.25Z"/>
                        </clipPath>
                        <g clip-path="url(#_clip1)">
                            <g transform="matrix(1,0,0,1,131,131)">
                                <g>
                                    <g>
                                        <g>
                                            <clipPath id="_clip2">
                                                <path d="M56.5,0.25C25.434,0.25 0.25,25.434 0.25,56.5C0.25,87.566 25.434,112.75 56.5,112.75C87.566,112.75 112.75,87.566 112.75,56.5C112.75,25.434 87.566,0.25 56.5,0.25Z"/>
                                            </clipPath>
                                            <g clip-path="url(#_clip2)">
                                                <rect x="0.25" y="0.25" width="112.5" height="112.5" style="fill:rgb(1,65,62);fill-rule:nonzero;"/>
                                            </g>
                                        </g>
                                    </g>
                                </g>
                            </g>
                        </g>
                    </g>
                </g>
                <g transform="matrix(5.555556,0,0,5.555556,0,0.000025)">
                    <path d="M350.922,25.281C338.977,13.336 322.633,7.051 305.027,7.68C287.426,8.309 271.082,15.852 258.508,28.422L46.652,240.277C45.398,241.535 44.77,242.793 44.77,244.051L8.934,345.891C6.422,352.176 8.309,359.094 12.707,363.492C15.852,366.637 20.25,368.523 24.652,368.523C26.539,368.523 28.422,367.895 30.309,367.266L131.523,331.434C132.777,331.434 134.664,330.805 135.293,329.547L347.148,117.691C359.723,105.117 367.266,88.145 367.895,71.172C369.152,53.57 362.863,37.852 350.922,25.281Z" style="fill:rgb(68,114,71);fill-rule:nonzero;"/>
                </g>
            </g>
        </g>
    </g>
    <g transform="matrix(8.329735,0,0,8.329735,-5523.137674,-13405.827846)">
        <path d="M744.057,1627.479L744.057,1647.954L739.069,1647.954L739.069,1635.675L734.49,1647.954L730.465,1647.954L725.857,1635.645L725.857,1647.954L720.869,1647.954L720.869,1627.479L726.761,1627.479L732.507,1641.654L738.194,1627.479L744.057,1627.479Z" style="fill:rgb(1,65,62);fill-rule:nonzero;"/>
        <path d="M745.194,1639.787C745.194,1638.115 745.51,1636.647 746.142,1635.383C746.774,1634.119 747.634,1633.147 748.723,1632.466C749.812,1631.786 751.027,1631.445 752.369,1631.445C753.516,1631.445 754.523,1631.679 755.388,1632.145C756.253,1632.612 756.919,1633.225 757.386,1633.983L757.386,1631.679L762.373,1631.679L762.373,1647.954L757.386,1647.954L757.386,1645.65C756.9,1646.408 756.224,1647.02 755.359,1647.487C754.493,1647.954 753.487,1648.187 752.34,1648.187C751.018,1648.187 749.812,1647.842 748.723,1647.152C747.634,1646.461 746.774,1645.479 746.142,1644.206C745.51,1642.932 745.194,1641.459 745.194,1639.787ZM757.386,1639.816C757.386,1638.572 757.041,1637.59 756.35,1636.87C755.66,1636.151 754.819,1635.791 753.827,1635.791C752.836,1635.791 751.995,1636.146 751.305,1636.856C750.614,1637.566 750.269,1638.543 750.269,1639.787C750.269,1641.032 750.614,1642.018 751.305,1642.748C751.995,1643.477 752.836,1643.841 753.827,1643.841C754.819,1643.841 755.66,1643.482 756.35,1642.762C757.041,1642.043 757.386,1641.061 757.386,1639.816Z" style="fill:rgb(1,65,62);fill-rule:nonzero;"/>
        <path d="M769.519,1634.391C770.102,1633.497 770.832,1632.792 771.707,1632.277C772.582,1631.761 773.554,1631.504 774.623,1631.504L774.623,1636.783L773.252,1636.783C772.008,1636.783 771.075,1637.05 770.452,1637.585C769.83,1638.12 769.519,1639.058 769.519,1640.4L769.519,1647.954L764.532,1647.954L764.532,1631.679L769.519,1631.679L769.519,1634.391Z" style="fill:rgb(1,65,62);fill-rule:nonzero;"/>
        <path d="M785.502,1647.954L780.544,1641.129L780.544,1647.954L775.557,1647.954L775.557,1626.37L780.544,1626.37L780.544,1638.3L785.473,1631.679L791.627,1631.679L784.861,1639.845L791.686,1647.954L785.502,1647.954Z" style="fill:rgb(1,65,62);fill-rule:nonzero;"/>
        <path d="M808.194,1631.679L808.194,1647.954L803.207,1647.954L803.207,1645.737C802.701,1646.457 802.016,1647.035 801.15,1647.473C800.285,1647.91 799.327,1648.129 798.277,1648.129C797.033,1648.129 795.934,1647.852 794.982,1647.298C794.029,1646.743 793.29,1645.941 792.765,1644.891C792.24,1643.841 791.977,1642.607 791.977,1641.187L791.977,1631.679L796.936,1631.679L796.936,1640.516C796.936,1641.605 797.218,1642.451 797.782,1643.054C798.346,1643.657 799.104,1643.958 800.057,1643.958C801.029,1643.958 801.797,1643.657 802.361,1643.054C802.925,1642.451 803.207,1641.605 803.207,1640.516L803.207,1631.679L808.194,1631.679Z" style="fill:rgb(1,65,62);fill-rule:nonzero;"/>
        <path d="M815.311,1633.983C815.797,1633.225 816.468,1632.612 817.323,1632.145C818.179,1631.679 819.18,1631.445 820.327,1631.445C821.669,1631.445 822.884,1631.786 823.973,1632.466C825.062,1633.147 825.923,1634.119 826.555,1635.383C827.187,1636.647 827.502,1638.115 827.502,1639.787C827.502,1641.459 827.187,1642.932 826.555,1644.206C825.923,1645.479 825.062,1646.461 823.973,1647.152C822.884,1647.842 821.669,1648.187 820.327,1648.187C819.2,1648.187 818.203,1647.954 817.338,1647.487C816.473,1647.02 815.797,1646.418 815.311,1645.679L815.311,1655.712L810.323,1655.712L810.323,1631.679L815.311,1631.679L815.311,1633.983ZM822.427,1639.787C822.427,1638.543 822.082,1637.566 821.392,1636.856C820.702,1636.146 819.851,1635.791 818.84,1635.791C817.848,1635.791 817.007,1636.151 816.317,1636.87C815.627,1637.59 815.282,1638.572 815.282,1639.816C815.282,1641.061 815.627,1642.043 816.317,1642.762C817.007,1643.482 817.848,1643.841 818.84,1643.841C819.832,1643.841 820.677,1643.477 821.377,1642.748C822.077,1642.018 822.427,1641.032 822.427,1639.787Z" style="fill:rgb(1,65,62);fill-rule:nonzero;"/>
    </g>
</svg>