<svg xmlns="http://www.w3.org/2000/svg" xmlns:xlink="http://www.w3.org/1999/xlink" xmlns:serif="http://www.serif.com/" version="1.1" xml:space="preserve" style="fill-rule:evenodd;clip-rule:evenodd;stroke-linejoin:round;stroke-miterlimit:2;" viewBox="254.22 141.4 1115.51 244.41">
    <g transform="matrix(0.08512,0,0,0.08512,339.196998,235.502211)">
        <g transform="matrix(1,0,0,1,-1041.666667,-1041.666667)">
            <g transform="matrix(5.555556,0,0,5.555556,0,0.000025)">
                <g>
                    <clipPath id="_clip1">
                        <path d="M187.5,131.25C156.434,131.25 131.25,156.434 131.25,187.5C131.25,218.566 156.434,243.75 187.5,243.75C218.566,243.75 243.75,218.566 243.75,187.5C243.75,156.434 218.566,131.25 187.5,131.25Z"/>
                    </clipPath>
                    <g clip-path="url(#_clip1)">
                        <g transform="matrix(1,0,0,1,131,131)">
                            <g>
                                <g>
                                    <g>
                                        <clipPath id="_clip2">
                                            <path d="M56.5,0.25C25.434,0.25 0.25,25.434 0.25,56.5C0.25,87.566 25.434,112.75 56.5,112.75C87.566,112.75 112.75,87.566 112.75,56.5C112.75,25.434 87.566,0.25 56.5,0.25Z"/>
                                        </clipPath>
                                        <g clip-path="url(#_clip2)">
                                            <rect x="0.25" y="0.25" width="112.5" height="112.5" style="fill:rgb(1,65,62);fill-rule:nonzero;"/>
                                        </g>
                                    </g>
                                </g>
                            </g>
                        </g>
                    </g>
                </g>
            </g>
            <g transform="matrix(5.555556,0,0,5.555556,0,0.000025)">
                <path d="M350.922,25.281C338.977,13.336 322.633,7.051 305.027,7.68C287.426,8.309 271.082,15.852 258.508,28.422L46.652,240.277C45.398,241.535 44.77,242.793 44.77,244.051L8.934,345.891C6.422,352.176 8.309,359.094 12.707,363.492C15.852,366.637 20.25,368.523 24.652,368.523C26.539,368.523 28.422,367.895 30.309,367.266L131.523,331.434C132.777,331.434 134.664,330.805 135.293,329.547L347.148,117.691C359.723,105.117 367.266,88.145 367.895,71.172C369.152,53.57 362.863,37.852 350.922,25.281Z" style="fill:rgb(68,114,71);fill-rule:nonzero;"/>
            </g>
        </g>
    </g>
    <g transform="matrix(8.329735,0,0,8.329735,-5523.137674,-13405.827846)">
        <path d="M744.057,1627.479L744.057,1647.954L739.069,1647.954L739.069,1635.675L734.49,1647.954L730.465,1647.954L725.857,1635.645L725.857,1647.954L720.869,1647.954L720.869,1627.479L726.761,1627.479L732.507,1641.654L738.194,1627.479L744.057,1627.479Z" style="fill:rgb(1,65,62);fill-rule:nonzero;"/>
        <path d="M745.194,1639.787C745.194,1638.115 745.51,1636.647 746.142,1635.383C746.774,1634.119 747.634,1633.147 748.723,1632.466C749.812,1631.786 751.027,1631.445 752.369,1631.445C753.516,1631.445 754.523,1631.679 755.388,1632.145C756.253,1632.612 756.919,1633.225 757.386,1633.983L757.386,1631.679L762.373,1631.679L762.373,1647.954L757.386,1647.954L757.386,1645.65C756.9,1646.408 756.224,1647.02 755.359,1647.487C754.493,1647.954 753.487,1648.187 752.34,1648.187C751.018,1648.187 749.812,1647.842 748.723,1647.152C747.634,1646.461 746.774,1645.479 746.142,1644.206C745.51,1642.932 745.194,1641.459 745.194,1639.787ZM757.386,1639.816C757.386,1638.572 757.041,1637.59 756.35,1636.87C755.66,1636.151 754.819,1635.791 753.827,1635.791C752.836,1635.791 751.995,1636.146 751.305,1636.856C750.614,1637.566 750.269,1638.543 750.269,1639.787C750.269,1641.032 750.614,1642.018 751.305,1642.748C751.995,1643.477 752.836,1643.841 753.827,1643.841C754.819,1643.841 755.66,1643.482 756.35,1642.762C757.041,1642.043 757.386,1641.061 757.386,1639.816Z" style="fill:rgb(1,65,62);fill-rule:nonzero;"/>
        <path d="M769.519,1634.391C770.102,1633.497 770.832,1632.792 771.707,1632.277C772.582,1631.761 773.554,1631.504 774.623,1631.504L774.623,1636.783L773.252,1636.783C772.008,1636.783 771.075,1637.05 770.452,1637.585C769.83,1638.12 769.519,1639.058 769.519,1640.4L769.519,1647.954L764.532,1647.954L764.532,1631.679L769.519,1631.679L769.519,1634.391Z" style="fill:rgb(1,65,62);fill-rule:nonzero;"/>
        <path d="M785.502,1647.954L780.544,1641.129L780.544,1647.954L775.557,1647.954L775.557,1626.37L780.544,1626.37L780.544,1638.3L785.473,1631.679L791.627,1631.679L784.861,1639.845L791.686,1647.954L785.502,1647.954Z" style="fill:rgb(1,65,62);fill-rule:nonzero;"/>
        <path d="M808.194,1631.679L808.194,1647.954L803.207,1647.954L803.207,1645.737C802.701,1646.457 802.016,1647.035 801.15,1647.473C800.285,1647.91 799.327,1648.129 798.277,1648.129C797.033,1648.129 795.934,1647.852 794.982,1647.298C794.029,1646.743 793.29,1645.941 792.765,1644.891C792.24,1643.841 791.977,1642.607 791.977,1641.187L791.977,1631.679L796.936,1631.679L796.936,1640.516C796.936,1641.605 797.218,1642.451 797.782,1643.054C798.346,1643.657 799.104,1643.958 800.057,1643.958C801.029,1643.958 801.797,1643.657 802.361,1643.054C802.925,1642.451 803.207,1641.605 803.207,1640.516L803.207,1631.679L808.194,1631.679Z" style="fill:rgb(1,65,62);fill-rule:nonzero;"/>
        <path d="M815.311,1633.983C815.797,1633.225 816.468,1632.612 817.323,1632.145C818.179,1631.679 819.18,1631.445 820.327,1631.445C821.669,1631.445 822.884,1631.786 823.973,1632.466C825.062,1633.147 825.923,1634.119 826.555,1635.383C827.187,1636.647 827.502,1638.115 827.502,1639.787C827.502,1641.459 827.187,1642.932 826.555,1644.206C825.923,1645.479 825.062,1646.461 823.973,1647.152C822.884,1647.842 821.669,1648.187 820.327,1648.187C819.2,1648.187 818.203,1647.954 817.338,1647.487C816.473,1647.02 815.797,1646.418 815.311,1645.679L815.311,1655.712L810.323,1655.712L810.323,1631.679L815.311,1631.679L815.311,1633.983ZM822.427,1639.787C822.427,1638.543 822.082,1637.566 821.392,1636.856C820.702,1636.146 819.851,1635.791 818.84,1635.791C817.848,1635.791 817.007,1636.151 816.317,1636.87C815.627,1637.59 815.282,1638.572 815.282,1639.816C815.282,1641.061 815.627,1642.043 816.317,1642.762C817.007,1643.482 817.848,1643.841 818.84,1643.841C819.832,1643.841 820.677,1643.477 821.377,1642.748C822.077,1642.018 822.427,1641.032 822.427,1639.787Z" style="fill:rgb(1,65,62);fill-rule:nonzero;"/>
    </g>
</svg>