<?xml version="1.0" encoding="UTF-8" standalone="no"?>
<!DOCTYPE svg PUBLIC "-//W3C//DTD SVG 1.1//EN" "http://www.w3.org/Graphics/SVG/1.1/DTD/svg11.dtd">
<svg width="100%" height="100%" viewBox="0 0 2481 3508" version="1.1" xmlns="http://www.w3.org/2000/svg" xmlns:xlink="http://www.w3.org/1999/xlink" xml:space="preserve" xmlns:serif="http://www.serif.com/" style="fill-rule:evenodd;clip-rule:evenodd;stroke-linecap:round;stroke-linejoin:round;stroke-miterlimit:1.5;">
    <g transform="matrix(1.01407,0,0,1.00804,-192.777889,570.674372)">
        <path d="M1263.5,538C1538.078,538 1755.499,760.978 1761,1035.5C1761.986,1084.713 1695.774,1070.522 1607.917,1107.91C1560.731,1127.99 1507.017,1157.51 1453.374,1205.525C1405.517,1248.359 1362.923,1309.15 1336.628,1370.528C1301.322,1452.943 1318.848,1531.439 1263.5,1533C989.03,1540.739 766,1310.078 766,1035.5C766,760.922 988.922,538 1263.5,538Z" style="fill:rgb(235,235,235);fill-opacity:0;stroke:black;stroke-width:41.21px;"/>
    </g>
    <path d="M1112,2109C1270.333,1951.667 1428.667,1794.333 1587,1637" style="fill:none;stroke:black;stroke-width:41.67px;"/>
</svg>
