<svg xmlns="http://www.w3.org/2000/svg" xmlns:xlink="http://www.w3.org/1999/xlink" zoomAndPan="magnify" preserveAspectRatio="xMidYMid meet" version="1.0" viewBox="-0.22 0 1431.22 507"><defs><g/><clipPath id="54bbd2d58f"><path d="M 0 0 L 1430.398438 0 L 1430.398438 506.640625 L 0 506.640625 Z M 0 0 " clip-rule="nonzero"/></clipPath><clipPath id="347d272734"><path d="M 0 301 L 141 301 L 141 485 L 0 485 Z M 0 301 " clip-rule="nonzero"/></clipPath><clipPath id="168f9f3d01"><rect x="0" width="1431" y="0" height="507"/></clipPath><clipPath id="402c0446a8"><path d="M 941.246094 278 L 1117.414062 278 L 1117.414062 432.949219 L 941.246094 432.949219 Z M 941.246094 278 " clip-rule="nonzero"/></clipPath><clipPath id="c251b022fa"><path d="M 1172 282 L 1338 282 L 1338 431.511719 L 1172 431.511719 Z M 1172 282 " clip-rule="nonzero"/></clipPath><clipPath id="2f6114ea91"><rect x="0" width="1431" y="0" height="507"/></clipPath></defs><g transform="matrix(1, 0, 0, 1, 0, 0.000000000000039746)"><g clip-path="url(#2f6114ea91)"><g clip-path="url(#54bbd2d58f)"><g transform="matrix(1, 0, 0, 1, 0, 0.000000000000039746)"><g clip-path="url(#168f9f3d01)"><g fill="#01413e" fill-opacity="1"><g transform="translate(0.00000622222, 206.295636)"><g><path d="M 192.078125 -124.1875 L 158.46875 0 L 116.40625 0 L 96.8125 -80.5625 L 76.5625 0 L 34.71875 0 L 0.890625 -124.1875 L 38.953125 -124.1875 L 56.53125 -35.390625 L 77.453125 -124.1875 L 117.734375 -124.1875 L 138.875 -35.828125 L 156.234375 -124.1875 Z M 192.078125 -124.1875 "/></g></g></g><g fill="#01413e" fill-opacity="1"><g transform="translate(180.245272, 206.295636)"><g><path d="M 32.9375 -137.09375 C 26.257812 -137.09375 20.804688 -139.054688 16.578125 -142.984375 C 12.347656 -146.921875 10.234375 -151.785156 10.234375 -157.578125 C 10.234375 -163.515625 12.347656 -168.445312 16.578125 -172.375 C 20.804688 -176.300781 26.257812 -178.265625 32.9375 -178.265625 C 39.46875 -178.265625 44.847656 -176.300781 49.078125 -172.375 C 53.304688 -168.445312 55.421875 -163.515625 55.421875 -157.578125 C 55.421875 -151.785156 53.304688 -146.921875 49.078125 -142.984375 C 44.847656 -139.054688 39.46875 -137.09375 32.9375 -137.09375 Z M 51.859375 -124.1875 L 51.859375 0 L 13.796875 0 L 13.796875 -124.1875 Z M 51.859375 -124.1875 "/></g></g></g><g fill="#01413e" fill-opacity="1"><g transform="translate(233.426491, 206.295636)"><g><path d="M 89.46875 -125.53125 C 104.007812 -125.53125 115.617188 -120.816406 124.296875 -111.390625 C 132.984375 -101.972656 137.328125 -89.03125 137.328125 -72.5625 L 137.328125 0 L 99.484375 0 L 99.484375 -67.4375 C 99.484375 -75.75 97.332031 -82.203125 93.03125 -86.796875 C 88.726562 -91.398438 82.941406 -93.703125 75.671875 -93.703125 C 68.398438 -93.703125 62.613281 -91.398438 58.3125 -86.796875 C 54.007812 -82.203125 51.859375 -75.75 51.859375 -67.4375 L 51.859375 0 L 13.796875 0 L 13.796875 -124.1875 L 51.859375 -124.1875 L 51.859375 -107.71875 C 55.710938 -113.207031 60.90625 -117.546875 67.4375 -120.734375 C 73.96875 -123.929688 81.3125 -125.53125 89.46875 -125.53125 Z M 89.46875 -125.53125 "/></g></g></g><g fill="#01413e" fill-opacity="1"><g transform="translate(370.946183, 206.295636)"><g/></g></g><g fill="#01413e" fill-opacity="1"><g transform="translate(405.657459, 206.295636)"><g><path d="M 83.015625 -32.265625 L 83.015625 0 L 63.65625 0 C 49.851562 0 39.09375 -3.375 31.375 -10.125 C 23.664062 -16.875 19.8125 -27.890625 19.8125 -43.171875 L 19.8125 -92.59375 L 4.671875 -92.59375 L 4.671875 -124.1875 L 19.8125 -124.1875 L 19.8125 -154.453125 L 57.859375 -154.453125 L 57.859375 -124.1875 L 82.796875 -124.1875 L 82.796875 -92.59375 L 57.859375 -92.59375 L 57.859375 -42.734375 C 57.859375 -39.023438 58.75 -36.351562 60.53125 -34.71875 C 62.3125 -33.082031 65.28125 -32.265625 69.4375 -32.265625 Z M 83.015625 -32.265625 "/></g></g></g><g fill="#01413e" fill-opacity="1"><g transform="translate(483.539383, 206.295636)"><g><path d="M 90.140625 -125.53125 C 104.378906 -125.53125 115.800781 -120.816406 124.40625 -111.390625 C 133.019531 -101.972656 137.328125 -89.03125 137.328125 -72.5625 L 137.328125 0 L 99.484375 0 L 99.484375 -67.4375 C 99.484375 -75.75 97.332031 -82.203125 93.03125 -86.796875 C 88.726562 -91.398438 82.941406 -93.703125 75.671875 -93.703125 C 68.398438 -93.703125 62.613281 -91.398438 58.3125 -86.796875 C 54.007812 -82.203125 51.859375 -75.75 51.859375 -67.4375 L 51.859375 0 L 13.796875 0 L 13.796875 -164.703125 L 51.859375 -164.703125 L 51.859375 -107.5 C 55.710938 -112.988281 60.976562 -117.363281 67.65625 -120.625 C 74.332031 -123.894531 81.828125 -125.53125 90.140625 -125.53125 Z M 90.140625 -125.53125 "/></g></g></g><g fill="#01413e" fill-opacity="1"><g transform="translate(621.059074, 206.295636)"><g><path d="M 130.859375 -64.09375 C 130.859375 -60.53125 130.640625 -56.820312 130.203125 -52.96875 L 44.0625 -52.96875 C 44.65625 -45.25 47.140625 -39.347656 51.515625 -35.265625 C 55.898438 -31.191406 61.28125 -29.15625 67.65625 -29.15625 C 77.15625 -29.15625 83.757812 -33.160156 87.46875 -41.171875 L 127.96875 -41.171875 C 125.894531 -33.015625 122.148438 -25.671875 116.734375 -19.140625 C 111.316406 -12.609375 104.523438 -7.488281 96.359375 -3.78125 C 88.203125 -0.0703125 79.082031 1.78125 69 1.78125 C 56.832031 1.78125 46 -0.8125 36.5 -6 C 27 -11.195312 19.578125 -18.617188 14.234375 -28.265625 C 8.898438 -37.910156 6.234375 -49.1875 6.234375 -62.09375 C 6.234375 -75 8.863281 -86.273438 14.125 -95.921875 C 19.394531 -105.566406 26.773438 -112.984375 36.265625 -118.171875 C 45.765625 -123.367188 56.675781 -125.96875 69 -125.96875 C 81.007812 -125.96875 91.6875 -123.445312 101.03125 -118.40625 C 110.382812 -113.363281 117.691406 -106.164062 122.953125 -96.8125 C 128.222656 -87.46875 130.859375 -76.5625 130.859375 -64.09375 Z M 91.921875 -74.109375 C 91.921875 -80.640625 89.691406 -85.832031 85.234375 -89.6875 C 80.785156 -93.550781 75.222656 -95.484375 68.546875 -95.484375 C 62.171875 -95.484375 56.789062 -93.625 52.40625 -89.90625 C 48.03125 -86.195312 45.328125 -80.929688 44.296875 -74.109375 Z M 91.921875 -74.109375 "/></g></g></g><g fill="#01413e" fill-opacity="1"><g transform="translate(745.672074, 206.295636)"><g/></g></g><g fill="#01413e" fill-opacity="1"><g transform="translate(780.38335, 206.295636)"><g><path d="M 90.140625 -125.53125 C 104.378906 -125.53125 115.800781 -120.816406 124.40625 -111.390625 C 133.019531 -101.972656 137.328125 -89.03125 137.328125 -72.5625 L 137.328125 0 L 99.484375 0 L 99.484375 -67.4375 C 99.484375 -75.75 97.332031 -82.203125 93.03125 -86.796875 C 88.726562 -91.398438 82.941406 -93.703125 75.671875 -93.703125 C 68.398438 -93.703125 62.613281 -91.398438 58.3125 -86.796875 C 54.007812 -82.203125 51.859375 -75.75 51.859375 -67.4375 L 51.859375 0 L 13.796875 0 L 13.796875 -164.703125 L 51.859375 -164.703125 L 51.859375 -107.5 C 55.710938 -112.988281 60.976562 -117.363281 67.65625 -120.625 C 74.332031 -123.894531 81.828125 -125.53125 90.140625 -125.53125 Z M 90.140625 -125.53125 "/></g></g></g><g fill="#01413e" fill-opacity="1"><g transform="translate(917.90309, 206.295636)"><g><path d="M 70.328125 1.78125 C 58.160156 1.78125 47.21875 -0.8125 37.5 -6 C 27.78125 -11.195312 20.140625 -18.617188 14.578125 -28.265625 C 9.015625 -37.910156 6.234375 -49.1875 6.234375 -62.09375 C 6.234375 -74.851562 9.050781 -86.09375 14.6875 -95.8125 C 20.320312 -105.53125 28.035156 -112.984375 37.828125 -118.171875 C 47.628906 -123.367188 58.613281 -125.96875 70.78125 -125.96875 C 82.945312 -125.96875 93.925781 -123.367188 103.71875 -118.171875 C 113.507812 -112.984375 121.222656 -105.53125 126.859375 -95.8125 C 132.492188 -86.09375 135.3125 -74.851562 135.3125 -62.09375 C 135.3125 -49.332031 132.457031 -38.09375 126.75 -28.375 C 121.039062 -18.65625 113.25 -11.195312 103.375 -6 C 93.507812 -0.8125 82.492188 1.78125 70.328125 1.78125 Z M 70.328125 -31.15625 C 77.597656 -31.15625 83.789062 -33.828125 88.90625 -39.171875 C 94.03125 -44.515625 96.59375 -52.15625 96.59375 -62.09375 C 96.59375 -72.03125 94.109375 -79.671875 89.140625 -85.015625 C 84.171875 -90.359375 78.050781 -93.03125 70.78125 -93.03125 C 63.351562 -93.03125 57.191406 -90.394531 52.296875 -85.125 C 47.398438 -79.863281 44.953125 -72.1875 44.953125 -62.09375 C 44.953125 -52.15625 47.363281 -44.515625 52.1875 -39.171875 C 57.007812 -33.828125 63.054688 -31.15625 70.328125 -31.15625 Z M 70.328125 -31.15625 "/></g></g></g><g fill="#01413e" fill-opacity="1"><g transform="translate(1047.189149, 206.295636)"><g><path d="M 136.4375 -124.1875 L 136.4375 0 L 98.375 0 L 98.375 -16.921875 C 94.519531 -11.429688 89.289062 -7.015625 82.6875 -3.671875 C 76.082031 -0.335938 68.773438 1.328125 60.765625 1.328125 C 51.265625 1.328125 42.878906 -0.78125 35.609375 -5 C 28.335938 -9.226562 22.695312 -15.347656 18.6875 -23.359375 C 14.6875 -31.378906 12.6875 -40.804688 12.6875 -51.640625 L 12.6875 -124.1875 L 50.515625 -124.1875 L 50.515625 -56.75 C 50.515625 -48.445312 52.664062 -41.992188 56.96875 -37.390625 C 61.28125 -32.785156 67.066406 -30.484375 74.328125 -30.484375 C 81.753906 -30.484375 87.617188 -32.785156 91.921875 -37.390625 C 96.222656 -41.992188 98.375 -48.445312 98.375 -56.75 L 98.375 -124.1875 Z M 136.4375 -124.1875 "/></g></g></g><g fill="#01413e" fill-opacity="1"><g transform="translate(1184.708789, 206.295636)"><g><path d="M 64.328125 1.78125 C 53.492188 1.78125 43.847656 -0.0703125 35.390625 -3.78125 C 26.929688 -7.488281 20.253906 -12.566406 15.359375 -19.015625 C 10.460938 -25.472656 7.71875 -32.710938 7.125 -40.734375 L 44.734375 -40.734375 C 45.179688 -36.429688 47.179688 -32.941406 50.734375 -30.265625 C 54.296875 -27.597656 58.675781 -26.265625 63.875 -26.265625 C 68.625 -26.265625 72.296875 -27.191406 74.890625 -29.046875 C 77.484375 -30.898438 78.78125 -33.3125 78.78125 -36.28125 C 78.78125 -39.84375 76.925781 -42.472656 73.21875 -44.171875 C 69.507812 -45.878906 63.503906 -47.773438 55.203125 -49.859375 C 46.296875 -51.929688 38.875 -54.117188 32.9375 -56.421875 C 27 -58.722656 21.878906 -62.359375 17.578125 -67.328125 C 13.273438 -72.296875 11.125 -79.007812 11.125 -87.46875 C 11.125 -94.59375 13.085938 -101.082031 17.015625 -106.9375 C 20.953125 -112.800781 26.738281 -117.4375 34.375 -120.84375 C 42.019531 -124.257812 51.113281 -125.96875 61.65625 -125.96875 C 77.226562 -125.96875 89.503906 -122.109375 98.484375 -114.390625 C 107.460938 -106.679688 112.617188 -96.445312 113.953125 -83.6875 L 78.78125 -83.6875 C 78.1875 -87.988281 76.296875 -91.398438 73.109375 -93.921875 C 69.921875 -96.441406 65.726562 -97.703125 60.53125 -97.703125 C 56.082031 -97.703125 52.671875 -96.847656 50.296875 -95.140625 C 47.921875 -93.441406 46.734375 -91.109375 46.734375 -88.140625 C 46.734375 -84.578125 48.625 -81.90625 52.40625 -80.125 C 56.195312 -78.34375 62.097656 -76.5625 70.109375 -74.78125 C 79.304688 -72.40625 86.796875 -70.066406 92.578125 -67.765625 C 98.367188 -65.472656 103.453125 -61.765625 107.828125 -56.640625 C 112.203125 -51.523438 114.46875 -44.664062 114.625 -36.0625 C 114.625 -28.789062 112.582031 -22.296875 108.5 -16.578125 C 104.414062 -10.867188 98.550781 -6.378906 90.90625 -3.109375 C 83.269531 0.148438 74.410156 1.78125 64.328125 1.78125 Z M 64.328125 1.78125 "/></g></g></g><g fill="#01413e" fill-opacity="1"><g transform="translate(1296.415242, 206.295636)"><g><path d="M 130.859375 -64.09375 C 130.859375 -60.53125 130.640625 -56.820312 130.203125 -52.96875 L 44.0625 -52.96875 C 44.65625 -45.25 47.140625 -39.347656 51.515625 -35.265625 C 55.898438 -31.191406 61.28125 -29.15625 67.65625 -29.15625 C 77.15625 -29.15625 83.757812 -33.160156 87.46875 -41.171875 L 127.96875 -41.171875 C 125.894531 -33.015625 122.148438 -25.671875 116.734375 -19.140625 C 111.316406 -12.609375 104.523438 -7.488281 96.359375 -3.78125 C 88.203125 -0.0703125 79.082031 1.78125 69 1.78125 C 56.832031 1.78125 46 -0.8125 36.5 -6 C 27 -11.195312 19.578125 -18.617188 14.234375 -28.265625 C 8.898438 -37.910156 6.234375 -49.1875 6.234375 -62.09375 C 6.234375 -75 8.863281 -86.273438 14.125 -95.921875 C 19.394531 -105.566406 26.773438 -112.984375 36.265625 -118.171875 C 45.765625 -123.367188 56.675781 -125.96875 69 -125.96875 C 81.007812 -125.96875 91.6875 -123.445312 101.03125 -118.40625 C 110.382812 -113.363281 117.691406 -106.164062 122.953125 -96.8125 C 128.222656 -87.46875 130.859375 -76.5625 130.859375 -64.09375 Z M 91.921875 -74.109375 C 91.921875 -80.640625 89.691406 -85.832031 85.234375 -89.6875 C 80.785156 -93.550781 75.222656 -95.484375 68.546875 -95.484375 C 62.171875 -95.484375 56.789062 -93.625 52.40625 -89.90625 C 48.03125 -86.195312 45.328125 -80.929688 44.296875 -74.109375 Z M 91.921875 -74.109375 "/></g></g></g><g clip-path="url(#347d272734)"><g fill="#01413e" fill-opacity="1"><g transform="translate(0.00000622222, 425.84843)"><g><path d="M 140.65625 -124.1875 L 62.765625 58.984375 L 21.8125 58.984375 L 50.296875 -4.234375 L -0.21875 -124.1875 L 42.28125 -124.1875 L 71 -46.515625 L 99.484375 -124.1875 Z M 140.65625 -124.1875 "/></g></g></g></g><g fill="#01413e" fill-opacity="1"><g transform="translate(128.173481, 425.84843)"><g><path d="M 70.328125 1.78125 C 58.160156 1.78125 47.21875 -0.8125 37.5 -6 C 27.78125 -11.195312 20.140625 -18.617188 14.578125 -28.265625 C 9.015625 -37.910156 6.234375 -49.1875 6.234375 -62.09375 C 6.234375 -74.851562 9.050781 -86.09375 14.6875 -95.8125 C 20.320312 -105.53125 28.035156 -112.984375 37.828125 -118.171875 C 47.628906 -123.367188 58.613281 -125.96875 70.78125 -125.96875 C 82.945312 -125.96875 93.925781 -123.367188 103.71875 -118.171875 C 113.507812 -112.984375 121.222656 -105.53125 126.859375 -95.8125 C 132.492188 -86.09375 135.3125 -74.851562 135.3125 -62.09375 C 135.3125 -49.332031 132.457031 -38.09375 126.75 -28.375 C 121.039062 -18.65625 113.25 -11.195312 103.375 -6 C 93.507812 -0.8125 82.492188 1.78125 70.328125 1.78125 Z M 70.328125 -31.15625 C 77.597656 -31.15625 83.789062 -33.828125 88.90625 -39.171875 C 94.03125 -44.515625 96.59375 -52.15625 96.59375 -62.09375 C 96.59375 -72.03125 94.109375 -79.671875 89.140625 -85.015625 C 84.171875 -90.359375 78.050781 -93.03125 70.78125 -93.03125 C 63.351562 -93.03125 57.191406 -90.394531 52.296875 -85.125 C 47.398438 -79.863281 44.953125 -72.1875 44.953125 -62.09375 C 44.953125 -52.15625 47.363281 -44.515625 52.1875 -39.171875 C 57.007812 -33.828125 63.054688 -31.15625 70.328125 -31.15625 Z M 70.328125 -31.15625 "/></g></g></g><g fill="#01413e" fill-opacity="1"><g transform="translate(257.459588, 425.84843)"><g><path d="M 136.4375 -124.1875 L 136.4375 0 L 98.375 0 L 98.375 -16.921875 C 94.519531 -11.429688 89.289062 -7.015625 82.6875 -3.671875 C 76.082031 -0.335938 68.773438 1.328125 60.765625 1.328125 C 51.265625 1.328125 42.878906 -0.78125 35.609375 -5 C 28.335938 -9.226562 22.695312 -15.347656 18.6875 -23.359375 C 14.6875 -31.378906 12.6875 -40.804688 12.6875 -51.640625 L 12.6875 -124.1875 L 50.515625 -124.1875 L 50.515625 -56.75 C 50.515625 -48.445312 52.664062 -41.992188 56.96875 -37.390625 C 61.28125 -32.785156 67.066406 -30.484375 74.328125 -30.484375 C 81.753906 -30.484375 87.617188 -32.785156 91.921875 -37.390625 C 96.222656 -41.992188 98.375 -48.445312 98.375 -56.75 L 98.375 -124.1875 Z M 136.4375 -124.1875 "/></g></g></g><g fill="#01413e" fill-opacity="1"><g transform="translate(394.979279, 425.84843)"><g/></g></g><g fill="#01413e" fill-opacity="1"><g transform="translate(429.690555, 425.84843)"><g><path d="M 51.859375 -164.703125 L 51.859375 0 L 13.796875 0 L 13.796875 -164.703125 Z M 51.859375 -164.703125 "/></g></g></g><g fill="#01413e" fill-opacity="1"><g transform="translate(482.871774, 425.84843)"><g><path d="M 70.328125 1.78125 C 58.160156 1.78125 47.21875 -0.8125 37.5 -6 C 27.78125 -11.195312 20.140625 -18.617188 14.578125 -28.265625 C 9.015625 -37.910156 6.234375 -49.1875 6.234375 -62.09375 C 6.234375 -74.851562 9.050781 -86.09375 14.6875 -95.8125 C 20.320312 -105.53125 28.035156 -112.984375 37.828125 -118.171875 C 47.628906 -123.367188 58.613281 -125.96875 70.78125 -125.96875 C 82.945312 -125.96875 93.925781 -123.367188 103.71875 -118.171875 C 113.507812 -112.984375 121.222656 -105.53125 126.859375 -95.8125 C 132.492188 -86.09375 135.3125 -74.851562 135.3125 -62.09375 C 135.3125 -49.332031 132.457031 -38.09375 126.75 -28.375 C 121.039062 -18.65625 113.25 -11.195312 103.375 -6 C 93.507812 -0.8125 82.492188 1.78125 70.328125 1.78125 Z M 70.328125 -31.15625 C 77.597656 -31.15625 83.789062 -33.828125 88.90625 -39.171875 C 94.03125 -44.515625 96.59375 -52.15625 96.59375 -62.09375 C 96.59375 -72.03125 94.109375 -79.671875 89.140625 -85.015625 C 84.171875 -90.359375 78.050781 -93.03125 70.78125 -93.03125 C 63.351562 -93.03125 57.191406 -90.394531 52.296875 -85.125 C 47.398438 -79.863281 44.953125 -72.1875 44.953125 -62.09375 C 44.953125 -52.15625 47.363281 -44.515625 52.1875 -39.171875 C 57.007812 -33.828125 63.054688 -31.15625 70.328125 -31.15625 Z M 70.328125 -31.15625 "/></g></g></g><g fill="#01413e" fill-opacity="1"><g transform="translate(612.157881, 425.84843)"><g><path d="M 69.65625 -35.609375 L 96.59375 -124.1875 L 137.09375 -124.1875 L 93.03125 0 L 46.078125 0 L 2 -124.1875 L 42.734375 -124.1875 Z M 69.65625 -35.609375 "/></g></g></g><g fill="#01413e" fill-opacity="1"><g transform="translate(738.996191, 425.84843)"><g><path d="M 130.859375 -64.09375 C 130.859375 -60.53125 130.640625 -56.820312 130.203125 -52.96875 L 44.0625 -52.96875 C 44.65625 -45.25 47.140625 -39.347656 51.515625 -35.265625 C 55.898438 -31.191406 61.28125 -29.15625 67.65625 -29.15625 C 77.15625 -29.15625 83.757812 -33.160156 87.46875 -41.171875 L 127.96875 -41.171875 C 125.894531 -33.015625 122.148438 -25.671875 116.734375 -19.140625 C 111.316406 -12.609375 104.523438 -7.488281 96.359375 -3.78125 C 88.203125 -0.0703125 79.082031 1.78125 69 1.78125 C 56.832031 1.78125 46 -0.8125 36.5 -6 C 27 -11.195312 19.578125 -18.617188 14.234375 -28.265625 C 8.898438 -37.910156 6.234375 -49.1875 6.234375 -62.09375 C 6.234375 -75 8.863281 -86.273438 14.125 -95.921875 C 19.394531 -105.566406 26.773438 -112.984375 36.265625 -118.171875 C 45.765625 -123.367188 56.675781 -125.96875 69 -125.96875 C 81.007812 -125.96875 91.6875 -123.445312 101.03125 -118.40625 C 110.382812 -113.363281 117.691406 -106.164062 122.953125 -96.8125 C 128.222656 -87.46875 130.859375 -76.5625 130.859375 -64.09375 Z M 91.921875 -74.109375 C 91.921875 -80.640625 89.691406 -85.832031 85.234375 -89.6875 C 80.785156 -93.550781 75.222656 -95.484375 68.546875 -95.484375 C 62.171875 -95.484375 56.789062 -93.625 52.40625 -89.90625 C 48.03125 -86.195312 45.328125 -80.929688 44.296875 -74.109375 Z M 91.921875 -74.109375 "/></g></g></g></g></g></g><g clip-path="url(#402c0446a8)"><path fill="#447247" d="M 1029.105469 278.152344 C 1028.363281 278.238281 1027.675781 278.574219 1027.148438 279.105469 L 942.550781 363.707031 C 941.269531 364.996094 941.28125 367.082031 942.574219 368.359375 C 943.1875 368.964844 944.011719 369.304688 944.875 369.308594 L 962.746094 369.308594 L 962.746094 429.480469 C 962.753906 431.289062 964.214844 432.753906 966.023438 432.761719 L 1092.929688 432.761719 C 1094.734375 432.753906 1096.199219 431.289062 1096.207031 429.480469 L 1096.207031 369.3125 L 1114.078125 369.3125 C 1115.894531 369.304688 1117.363281 367.824219 1117.355469 366.007812 C 1117.351562 365.144531 1117.011719 364.320312 1116.402344 363.707031 L 1095.78125 343.085938 L 1095.78125 314.847656 C 1095.777344 313.042969 1094.3125 311.578125 1092.503906 311.570312 L 1078.546875 311.570312 C 1076.738281 311.578125 1075.273438 313.042969 1075.269531 314.847656 L 1075.269531 322.566406 L 1031.800781 279.105469 C 1031.097656 278.394531 1030.101562 278.042969 1029.105469 278.152344 Z M 1029.105469 278.152344 " fill-opacity="1" fill-rule="nonzero"/></g><g clip-path="url(#c251b022fa)"><path fill="#7a306c" d="M 1255.117188 431.335938 C 1254.285156 430.367188 1253.5625 429.613281 1252.941406 428.785156 C 1243.421875 416.101562 1232.539062 404.671875 1220.902344 393.941406 C 1212.808594 386.480469 1204.523438 379.222656 1196.472656 371.714844 C 1189.636719 365.339844 1183.105469 358.625 1178.445312 350.414062 C 1170.074219 335.671875 1170.042969 320.519531 1178.042969 305.851562 C 1186.3125 290.679688 1199.699219 282.863281 1217.054688 282.617188 C 1231.6875 282.410156 1243.320312 288.847656 1252.578125 299.917969 C 1253.335938 300.824219 1254.042969 301.78125 1255.066406 303.089844 C 1256.058594 301.914062 1256.90625 300.976562 1257.679688 299.984375 C 1274.804688 278.007812 1307.214844 276.585938 1326.035156 297.023438 C 1339.464844 311.609375 1343.082031 336.011719 1328.769531 355.21875 C 1322.214844 364.015625 1314.25 371.425781 1306.15625 378.714844 C 1294.59375 389.125 1282.835938 399.34375 1272.375 410.898438 C 1267 416.832031 1262.058594 423.160156 1256.914062 429.308594 C 1256.390625 429.925781 1255.839844 430.519531 1255.117188 431.335938 Z M 1255.117188 431.335938 " fill-opacity="1" fill-rule="nonzero"/></g></g></g></svg>