<svg xmlns="http://www.w3.org/2000/svg" xmlns:xlink="http://www.w3.org/1999/xlink" width="1895" zoomAndPan="magnify" viewBox="0 0 1421.25 386.999991" height="516" preserveAspectRatio="xMidYMid meet" version="1.0"><defs><g/><clipPath id="56019addef"><path d="M 0 0.101562 L 1420.5 0.101562 L 1420.5 386.898438 L 0 386.898438 Z M 0 0.101562 " clip-rule="nonzero"/></clipPath><clipPath id="19e76a0326"><path d="M 64 0.101562 L 1379 0.101562 L 1379 386.898438 L 64 386.898438 Z M 64 0.101562 " clip-rule="nonzero"/></clipPath><clipPath id="fb67b324e6"><path d="M 0.6875 47.550781 L 146 47.550781 L 146 173.941406 L 0.6875 173.941406 Z M 0.6875 47.550781 " clip-rule="nonzero"/></clipPath><clipPath id="c74d5526e7"><path d="M 2 216 L 140 216 L 140 338.070312 L 2 338.070312 Z M 2 216 " clip-rule="nonzero"/></clipPath><clipPath id="c13558fe27"><rect x="0" width="1315" y="0" height="387"/></clipPath></defs><g clip-path="url(#56019addef)"><path fill="#ffffff" d="M 0 0.101562 L 1420.5 0.101562 L 1420.5 386.898438 L 0 386.898438 Z M 0 0.101562 " fill-opacity="1" fill-rule="nonzero"/><path fill="#ffffff" d="M 0 0.101562 L 1420.5 0.101562 L 1420.5 386.898438 L 0 386.898438 Z M 0 0.101562 " fill-opacity="1" fill-rule="nonzero"/></g><g clip-path="url(#19e76a0326)"><g transform="matrix(1, 0, 0, 1, 64, -0.000000000000076009)"><g clip-path="url(#c13558fe27)"><g fill="#01413e" fill-opacity="1"><g transform="translate(183.264068, 162.257)"><g><path d="M 158.390625 -102.40625 L 130.671875 0 L 95.984375 0 L 79.84375 -66.4375 L 63.140625 0 L 28.625 0 L 0.734375 -102.40625 L 32.125 -102.40625 L 46.609375 -29.1875 L 63.875 -102.40625 L 97.09375 -102.40625 L 114.53125 -29.546875 L 128.84375 -102.40625 Z M 158.390625 -102.40625 "/></g></g></g><g fill="#01413e" fill-opacity="1"><g transform="translate(331.85547, 162.257)"><g><path d="M 27.15625 -113.0625 C 21.65625 -113.0625 17.160156 -114.679688 13.671875 -117.921875 C 10.179688 -121.160156 8.4375 -125.164062 8.4375 -129.9375 C 8.4375 -134.832031 10.179688 -138.898438 13.671875 -142.140625 C 17.160156 -145.390625 21.65625 -147.015625 27.15625 -147.015625 C 32.539062 -147.015625 36.976562 -145.390625 40.46875 -142.140625 C 43.957031 -138.898438 45.703125 -134.832031 45.703125 -129.9375 C 45.703125 -125.164062 43.957031 -121.160156 40.46875 -117.921875 C 36.976562 -114.679688 32.539062 -113.0625 27.15625 -113.0625 Z M 42.765625 -102.40625 L 42.765625 0 L 11.375 0 L 11.375 -102.40625 Z M 42.765625 -102.40625 "/></g></g></g><g fill="#01413e" fill-opacity="1"><g transform="translate(375.694038, 162.257)"><g><path d="M 73.78125 -103.515625 C 85.769531 -103.515625 95.34375 -99.628906 102.5 -91.859375 C 109.65625 -84.085938 113.234375 -73.410156 113.234375 -59.828125 L 113.234375 0 L 82.03125 0 L 82.03125 -55.609375 C 82.03125 -62.460938 80.253906 -67.785156 76.703125 -71.578125 C 73.160156 -75.367188 68.394531 -77.265625 62.40625 -77.265625 C 56.40625 -77.265625 51.628906 -75.367188 48.078125 -71.578125 C 44.535156 -67.785156 42.765625 -62.460938 42.765625 -55.609375 L 42.765625 0 L 11.375 0 L 11.375 -102.40625 L 42.765625 -102.40625 L 42.765625 -88.828125 C 45.941406 -93.359375 50.222656 -96.9375 55.609375 -99.5625 C 60.992188 -102.195312 67.050781 -103.515625 73.78125 -103.515625 Z M 73.78125 -103.515625 "/></g></g></g><g fill="#01413e" fill-opacity="1"><g transform="translate(489.062065, 162.257)"><g><path d="M 68.453125 -26.609375 L 68.453125 0 L 52.484375 0 C 41.109375 0 32.238281 -2.78125 25.875 -8.34375 C 19.507812 -13.914062 16.328125 -23.003906 16.328125 -35.609375 L 16.328125 -76.34375 L 3.859375 -76.34375 L 3.859375 -102.40625 L 16.328125 -102.40625 L 16.328125 -127.375 L 47.71875 -127.375 L 47.71875 -102.40625 L 68.28125 -102.40625 L 68.28125 -76.34375 L 47.71875 -76.34375 L 47.71875 -35.234375 C 47.71875 -32.179688 48.453125 -29.976562 49.921875 -28.625 C 51.390625 -27.28125 53.835938 -26.609375 57.265625 -26.609375 Z M 68.453125 -26.609375 "/></g></g></g><g fill="#01413e" fill-opacity="1"><g transform="translate(553.264159, 162.257)"><g><path d="M 74.328125 -103.515625 C 86.078125 -103.515625 95.5 -99.628906 102.59375 -91.859375 C 109.6875 -84.085938 113.234375 -73.410156 113.234375 -59.828125 L 113.234375 0 L 82.03125 0 L 82.03125 -55.609375 C 82.03125 -62.460938 80.253906 -67.785156 76.703125 -71.578125 C 73.160156 -75.367188 68.394531 -77.265625 62.40625 -77.265625 C 56.40625 -77.265625 51.628906 -75.367188 48.078125 -71.578125 C 44.535156 -67.785156 42.765625 -62.460938 42.765625 -55.609375 L 42.765625 0 L 11.375 0 L 11.375 -135.8125 L 42.765625 -135.8125 L 42.765625 -88.640625 C 45.941406 -93.171875 50.28125 -96.78125 55.78125 -99.46875 C 61.289062 -102.164062 67.472656 -103.515625 74.328125 -103.515625 Z M 74.328125 -103.515625 "/></g></g></g><g fill="#01413e" fill-opacity="1"><g transform="translate(666.632186, 162.257)"><g><path d="M 107.921875 -52.859375 C 107.921875 -49.921875 107.734375 -46.863281 107.359375 -43.6875 L 36.34375 -43.6875 C 36.832031 -37.320312 38.878906 -32.457031 42.484375 -29.09375 C 46.097656 -25.726562 50.535156 -24.046875 55.796875 -24.046875 C 63.628906 -24.046875 69.070312 -27.347656 72.125 -33.953125 L 105.53125 -33.953125 C 103.820312 -27.222656 100.734375 -21.164062 96.265625 -15.78125 C 91.796875 -10.394531 86.195312 -6.171875 79.46875 -3.109375 C 72.738281 -0.0546875 65.210938 1.46875 56.890625 1.46875 C 46.859375 1.46875 37.925781 -0.671875 30.09375 -4.953125 C 22.269531 -9.234375 16.15625 -15.347656 11.75 -23.296875 C 7.34375 -31.253906 5.140625 -40.554688 5.140625 -51.203125 C 5.140625 -61.847656 7.3125 -71.144531 11.65625 -79.09375 C 16 -87.050781 22.082031 -93.171875 29.90625 -97.453125 C 37.738281 -101.734375 46.734375 -103.875 56.890625 -103.875 C 66.804688 -103.875 75.617188 -101.796875 83.328125 -97.640625 C 91.035156 -93.484375 97.0625 -87.550781 101.40625 -79.84375 C 105.75 -72.132812 107.921875 -63.140625 107.921875 -52.859375 Z M 75.796875 -61.109375 C 75.796875 -66.492188 73.957031 -70.773438 70.28125 -73.953125 C 66.613281 -77.140625 62.03125 -78.734375 56.53125 -78.734375 C 51.269531 -78.734375 46.832031 -77.203125 43.21875 -74.140625 C 39.613281 -71.085938 37.378906 -66.742188 36.515625 -61.109375 Z M 75.796875 -61.109375 "/></g></g></g><g fill="#01413e" fill-opacity="1"><g transform="translate(769.3598, 162.257)"><g><path d="M 74.328125 -103.515625 C 86.078125 -103.515625 95.5 -99.628906 102.59375 -91.859375 C 109.6875 -84.085938 113.234375 -73.410156 113.234375 -59.828125 L 113.234375 0 L 82.03125 0 L 82.03125 -55.609375 C 82.03125 -62.460938 80.253906 -67.785156 76.703125 -71.578125 C 73.160156 -75.367188 68.394531 -77.265625 62.40625 -77.265625 C 56.40625 -77.265625 51.628906 -75.367188 48.078125 -71.578125 C 44.535156 -67.785156 42.765625 -62.460938 42.765625 -55.609375 L 42.765625 0 L 11.375 0 L 11.375 -135.8125 L 42.765625 -135.8125 L 42.765625 -88.640625 C 45.941406 -93.171875 50.28125 -96.78125 55.78125 -99.46875 C 61.289062 -102.164062 67.472656 -103.515625 74.328125 -103.515625 Z M 74.328125 -103.515625 "/></g></g></g><g fill="#01413e" fill-opacity="1"><g transform="translate(882.727827, 162.257)"><g><path d="M 58 1.46875 C 47.96875 1.46875 38.941406 -0.671875 30.921875 -4.953125 C 22.910156 -9.234375 16.609375 -15.347656 12.015625 -23.296875 C 7.429688 -31.253906 5.140625 -40.554688 5.140625 -51.203125 C 5.140625 -61.722656 7.460938 -70.988281 12.109375 -79 C 16.765625 -87.019531 23.128906 -93.171875 31.203125 -97.453125 C 39.273438 -101.734375 48.328125 -103.875 58.359375 -103.875 C 68.390625 -103.875 77.441406 -101.734375 85.515625 -97.453125 C 93.597656 -93.171875 99.960938 -87.019531 104.609375 -79 C 109.265625 -70.988281 111.59375 -61.722656 111.59375 -51.203125 C 111.59375 -40.679688 109.234375 -31.410156 104.515625 -23.390625 C 99.804688 -15.378906 93.382812 -9.234375 85.25 -4.953125 C 77.113281 -0.671875 68.03125 1.46875 58 1.46875 Z M 58 -25.6875 C 63.988281 -25.6875 69.09375 -27.890625 73.3125 -32.296875 C 77.539062 -36.703125 79.65625 -43.003906 79.65625 -51.203125 C 79.65625 -59.398438 77.601562 -65.703125 73.5 -70.109375 C 69.40625 -74.515625 64.359375 -76.71875 58.359375 -76.71875 C 52.242188 -76.71875 47.164062 -74.546875 43.125 -70.203125 C 39.09375 -65.859375 37.078125 -59.523438 37.078125 -51.203125 C 37.078125 -43.003906 39.0625 -36.703125 43.03125 -32.296875 C 47.007812 -27.890625 52 -25.6875 58 -25.6875 Z M 58 -25.6875 "/></g></g></g><g fill="#01413e" fill-opacity="1"><g transform="translate(989.308043, 162.257)"><g><path d="M 112.5 -102.40625 L 112.5 0 L 81.125 0 L 81.125 -13.953125 C 77.9375 -9.421875 73.617188 -5.78125 68.171875 -3.03125 C 62.734375 -0.28125 56.710938 1.09375 50.109375 1.09375 C 42.273438 1.09375 35.359375 -0.644531 29.359375 -4.125 C 23.367188 -7.613281 18.722656 -12.660156 15.421875 -19.265625 C 12.117188 -25.878906 10.46875 -33.648438 10.46875 -42.578125 L 10.46875 -102.40625 L 41.65625 -102.40625 L 41.65625 -46.796875 C 41.65625 -39.941406 43.429688 -34.617188 46.984375 -30.828125 C 50.535156 -27.035156 55.304688 -25.140625 61.296875 -25.140625 C 67.410156 -25.140625 72.242188 -27.035156 75.796875 -30.828125 C 79.347656 -34.617188 81.125 -39.941406 81.125 -46.796875 L 81.125 -102.40625 Z M 112.5 -102.40625 "/></g></g></g><g fill="#01413e" fill-opacity="1"><g transform="translate(1102.67607, 162.257)"><g><path d="M 53.046875 1.46875 C 44.109375 1.46875 36.148438 -0.0546875 29.171875 -3.109375 C 22.203125 -6.171875 16.695312 -10.363281 12.65625 -15.6875 C 8.625 -21.007812 6.363281 -26.976562 5.875 -33.59375 L 36.890625 -33.59375 C 37.253906 -30.039062 38.90625 -27.160156 41.84375 -24.953125 C 44.78125 -22.753906 48.390625 -21.65625 52.671875 -21.65625 C 56.585938 -21.65625 59.613281 -22.421875 61.75 -23.953125 C 63.894531 -25.484375 64.96875 -27.472656 64.96875 -29.921875 C 64.96875 -32.859375 63.4375 -35.03125 60.375 -36.4375 C 57.320312 -37.84375 52.367188 -39.398438 45.515625 -41.109375 C 38.171875 -42.828125 32.050781 -44.632812 27.15625 -46.53125 C 22.269531 -48.425781 18.050781 -51.421875 14.5 -55.515625 C 10.945312 -59.617188 9.171875 -65.15625 9.171875 -72.125 C 9.171875 -78 10.789062 -83.351562 14.03125 -88.1875 C 17.28125 -93.019531 22.054688 -96.84375 28.359375 -99.65625 C 34.660156 -102.46875 42.15625 -103.875 50.84375 -103.875 C 63.6875 -103.875 73.804688 -100.691406 81.203125 -94.328125 C 88.609375 -87.972656 92.863281 -79.53125 93.96875 -69 L 64.96875 -69 C 64.476562 -72.550781 62.914062 -75.363281 60.28125 -77.4375 C 57.65625 -79.519531 54.203125 -80.5625 49.921875 -80.5625 C 46.253906 -80.5625 43.441406 -79.859375 41.484375 -78.453125 C 39.523438 -77.046875 38.546875 -75.117188 38.546875 -72.671875 C 38.546875 -69.742188 40.101562 -67.546875 43.21875 -66.078125 C 46.34375 -64.609375 51.207031 -63.140625 57.8125 -61.671875 C 65.394531 -59.710938 71.570312 -57.785156 76.34375 -55.890625 C 81.113281 -53.992188 85.300781 -50.929688 88.90625 -46.703125 C 92.519531 -42.484375 94.390625 -36.828125 94.515625 -29.734375 C 94.515625 -23.734375 92.832031 -18.378906 89.46875 -13.671875 C 86.101562 -8.960938 81.269531 -5.257812 74.96875 -2.5625 C 68.664062 0.125 61.359375 1.46875 53.046875 1.46875 Z M 53.046875 1.46875 "/></g></g></g><g fill="#01413e" fill-opacity="1"><g transform="translate(1194.763374, 162.257)"><g><path d="M 107.921875 -52.859375 C 107.921875 -49.921875 107.734375 -46.863281 107.359375 -43.6875 L 36.34375 -43.6875 C 36.832031 -37.320312 38.878906 -32.457031 42.484375 -29.09375 C 46.097656 -25.726562 50.535156 -24.046875 55.796875 -24.046875 C 63.628906 -24.046875 69.070312 -27.347656 72.125 -33.953125 L 105.53125 -33.953125 C 103.820312 -27.222656 100.734375 -21.164062 96.265625 -15.78125 C 91.796875 -10.394531 86.195312 -6.171875 79.46875 -3.109375 C 72.738281 -0.0546875 65.210938 1.46875 56.890625 1.46875 C 46.859375 1.46875 37.925781 -0.671875 30.09375 -4.953125 C 22.269531 -9.234375 16.15625 -15.347656 11.75 -23.296875 C 7.34375 -31.253906 5.140625 -40.554688 5.140625 -51.203125 C 5.140625 -61.847656 7.3125 -71.144531 11.65625 -79.09375 C 16 -87.050781 22.082031 -93.171875 29.90625 -97.453125 C 37.738281 -101.734375 46.734375 -103.875 56.890625 -103.875 C 66.804688 -103.875 75.617188 -101.796875 83.328125 -97.640625 C 91.035156 -93.484375 97.0625 -87.550781 101.40625 -79.84375 C 105.75 -72.132812 107.921875 -63.140625 107.921875 -52.859375 Z M 75.796875 -61.109375 C 75.796875 -66.492188 73.957031 -70.773438 70.28125 -73.953125 C 66.613281 -77.140625 62.03125 -78.734375 56.53125 -78.734375 C 51.269531 -78.734375 46.832031 -77.203125 43.21875 -74.140625 C 39.613281 -71.085938 37.378906 -66.742188 36.515625 -61.109375 Z M 75.796875 -61.109375 "/></g></g></g><g fill="#01413e" fill-opacity="1"><g transform="translate(183.264068, 321.90975)"><g><path d="M 115.984375 -102.40625 L 51.75 48.640625 L 17.984375 48.640625 L 41.484375 -3.484375 L -0.1875 -102.40625 L 34.875 -102.40625 L 58.546875 -38.359375 L 82.03125 -102.40625 Z M 115.984375 -102.40625 "/></g></g></g><g fill="#01413e" fill-opacity="1"><g transform="translate(288.926988, 321.90975)"><g><path d="M 58 1.46875 C 47.96875 1.46875 38.941406 -0.671875 30.921875 -4.953125 C 22.910156 -9.234375 16.609375 -15.347656 12.015625 -23.296875 C 7.429688 -31.253906 5.140625 -40.554688 5.140625 -51.203125 C 5.140625 -61.722656 7.460938 -70.988281 12.109375 -79 C 16.765625 -87.019531 23.128906 -93.171875 31.203125 -97.453125 C 39.273438 -101.734375 48.328125 -103.875 58.359375 -103.875 C 68.390625 -103.875 77.441406 -101.734375 85.515625 -97.453125 C 93.597656 -93.171875 99.960938 -87.019531 104.609375 -79 C 109.265625 -70.988281 111.59375 -61.722656 111.59375 -51.203125 C 111.59375 -40.679688 109.234375 -31.410156 104.515625 -23.390625 C 99.804688 -15.378906 93.382812 -9.234375 85.25 -4.953125 C 77.113281 -0.671875 68.03125 1.46875 58 1.46875 Z M 58 -25.6875 C 63.988281 -25.6875 69.09375 -27.890625 73.3125 -32.296875 C 77.539062 -36.703125 79.65625 -43.003906 79.65625 -51.203125 C 79.65625 -59.398438 77.601562 -65.703125 73.5 -70.109375 C 69.40625 -74.515625 64.359375 -76.71875 58.359375 -76.71875 C 52.242188 -76.71875 47.164062 -74.546875 43.125 -70.203125 C 39.09375 -65.859375 37.078125 -59.523438 37.078125 -51.203125 C 37.078125 -43.003906 39.0625 -36.703125 43.03125 -32.296875 C 47.007812 -27.890625 52 -25.6875 58 -25.6875 Z M 58 -25.6875 "/></g></g></g><g fill="#01413e" fill-opacity="1"><g transform="translate(395.507204, 321.90975)"><g><path d="M 112.5 -102.40625 L 112.5 0 L 81.125 0 L 81.125 -13.953125 C 77.9375 -9.421875 73.617188 -5.78125 68.171875 -3.03125 C 62.734375 -0.28125 56.710938 1.09375 50.109375 1.09375 C 42.273438 1.09375 35.359375 -0.644531 29.359375 -4.125 C 23.367188 -7.613281 18.722656 -12.660156 15.421875 -19.265625 C 12.117188 -25.878906 10.46875 -33.648438 10.46875 -42.578125 L 10.46875 -102.40625 L 41.65625 -102.40625 L 41.65625 -46.796875 C 41.65625 -39.941406 43.429688 -34.617188 46.984375 -30.828125 C 50.535156 -27.035156 55.304688 -25.140625 61.296875 -25.140625 C 67.410156 -25.140625 72.242188 -27.035156 75.796875 -30.828125 C 79.347656 -34.617188 81.125 -39.941406 81.125 -46.796875 L 81.125 -102.40625 Z M 112.5 -102.40625 "/></g></g></g><g fill="#01413e" fill-opacity="1"><g transform="translate(508.875231, 321.90975)"><g><path d="M 42.765625 -135.8125 L 42.765625 0 L 11.375 0 L 11.375 -135.8125 Z M 42.765625 -135.8125 "/></g></g></g><g fill="#01413e" fill-opacity="1"><g transform="translate(552.7138, 321.90975)"><g><path d="M 58 1.46875 C 47.96875 1.46875 38.941406 -0.671875 30.921875 -4.953125 C 22.910156 -9.234375 16.609375 -15.347656 12.015625 -23.296875 C 7.429688 -31.253906 5.140625 -40.554688 5.140625 -51.203125 C 5.140625 -61.722656 7.460938 -70.988281 12.109375 -79 C 16.765625 -87.019531 23.128906 -93.171875 31.203125 -97.453125 C 39.273438 -101.734375 48.328125 -103.875 58.359375 -103.875 C 68.390625 -103.875 77.441406 -101.734375 85.515625 -97.453125 C 93.597656 -93.171875 99.960938 -87.019531 104.609375 -79 C 109.265625 -70.988281 111.59375 -61.722656 111.59375 -51.203125 C 111.59375 -40.679688 109.234375 -31.410156 104.515625 -23.390625 C 99.804688 -15.378906 93.382812 -9.234375 85.25 -4.953125 C 77.113281 -0.671875 68.03125 1.46875 58 1.46875 Z M 58 -25.6875 C 63.988281 -25.6875 69.09375 -27.890625 73.3125 -32.296875 C 77.539062 -36.703125 79.65625 -43.003906 79.65625 -51.203125 C 79.65625 -59.398438 77.601562 -65.703125 73.5 -70.109375 C 69.40625 -74.515625 64.359375 -76.71875 58.359375 -76.71875 C 52.242188 -76.71875 47.164062 -74.546875 43.125 -70.203125 C 39.09375 -65.859375 37.078125 -59.523438 37.078125 -51.203125 C 37.078125 -43.003906 39.0625 -36.703125 43.03125 -32.296875 C 47.007812 -27.890625 52 -25.6875 58 -25.6875 Z M 58 -25.6875 "/></g></g></g><g fill="#01413e" fill-opacity="1"><g transform="translate(659.294016, 321.90975)"><g><path d="M 57.4375 -29.359375 L 79.65625 -102.40625 L 113.0625 -102.40625 L 76.71875 0 L 37.984375 0 L 1.65625 -102.40625 L 35.234375 -102.40625 Z M 57.4375 -29.359375 "/></g></g></g><g fill="#01413e" fill-opacity="1"><g transform="translate(763.856221, 321.90975)"><g><path d="M 107.921875 -52.859375 C 107.921875 -49.921875 107.734375 -46.863281 107.359375 -43.6875 L 36.34375 -43.6875 C 36.832031 -37.320312 38.878906 -32.457031 42.484375 -29.09375 C 46.097656 -25.726562 50.535156 -24.046875 55.796875 -24.046875 C 63.628906 -24.046875 69.070312 -27.347656 72.125 -33.953125 L 105.53125 -33.953125 C 103.820312 -27.222656 100.734375 -21.164062 96.265625 -15.78125 C 91.796875 -10.394531 86.195312 -6.171875 79.46875 -3.109375 C 72.738281 -0.0546875 65.210938 1.46875 56.890625 1.46875 C 46.859375 1.46875 37.925781 -0.671875 30.09375 -4.953125 C 22.269531 -9.234375 16.15625 -15.347656 11.75 -23.296875 C 7.34375 -31.253906 5.140625 -40.554688 5.140625 -51.203125 C 5.140625 -61.847656 7.3125 -71.144531 11.65625 -79.09375 C 16 -87.050781 22.082031 -93.171875 29.90625 -97.453125 C 37.738281 -101.734375 46.734375 -103.875 56.890625 -103.875 C 66.804688 -103.875 75.617188 -101.796875 83.328125 -97.640625 C 91.035156 -93.484375 97.0625 -87.550781 101.40625 -79.84375 C 105.75 -72.132812 107.921875 -63.140625 107.921875 -52.859375 Z M 75.796875 -61.109375 C 75.796875 -66.492188 73.957031 -70.773438 70.28125 -73.953125 C 66.613281 -77.140625 62.03125 -78.734375 56.53125 -78.734375 C 51.269531 -78.734375 46.832031 -77.203125 43.21875 -74.140625 C 39.613281 -71.085938 37.378906 -66.742188 36.515625 -61.109375 Z M 75.796875 -61.109375 "/></g></g></g><g fill="#01413e" fill-opacity="1"><g transform="translate(866.583835, 321.90975)"><g><path d="M 26.0625 1.46875 C 20.550781 1.46875 16.050781 -0.148438 12.5625 -3.390625 C 9.082031 -6.640625 7.34375 -10.648438 7.34375 -15.421875 C 7.34375 -20.316406 9.082031 -24.414062 12.5625 -27.71875 C 16.050781 -31.019531 20.550781 -32.671875 26.0625 -32.671875 C 31.445312 -32.671875 35.878906 -31.019531 39.359375 -27.71875 C 42.847656 -24.414062 44.59375 -20.316406 44.59375 -15.421875 C 44.59375 -10.648438 42.847656 -6.640625 39.359375 -3.390625 C 35.878906 -0.148438 31.445312 1.46875 26.0625 1.46875 Z M 26.0625 1.46875 "/></g></g></g><g fill="#01413e" fill-opacity="1"><g transform="translate(908.037454, 321.90975)"><g><path d="M 5.140625 -51.203125 C 5.140625 -61.847656 7.3125 -71.144531 11.65625 -79.09375 C 16 -87.050781 22.054688 -93.171875 29.828125 -97.453125 C 37.597656 -101.734375 46.5 -103.875 56.53125 -103.875 C 69.375 -103.875 80.109375 -100.507812 88.734375 -93.78125 C 97.359375 -87.050781 103.019531 -77.570312 105.71875 -65.34375 L 72.3125 -65.34375 C 69.5 -73.164062 64.054688 -77.078125 55.984375 -77.078125 C 50.222656 -77.078125 45.628906 -74.84375 42.203125 -70.375 C 38.785156 -65.914062 37.078125 -59.523438 37.078125 -51.203125 C 37.078125 -42.878906 38.785156 -36.484375 42.203125 -32.015625 C 45.628906 -27.554688 50.222656 -25.328125 55.984375 -25.328125 C 64.054688 -25.328125 69.5 -29.242188 72.3125 -37.078125 L 105.71875 -37.078125 C 103.019531 -25.085938 97.328125 -15.664062 88.640625 -8.8125 C 79.953125 -1.957031 69.25 1.46875 56.53125 1.46875 C 46.5 1.46875 37.597656 -0.671875 29.828125 -4.953125 C 22.054688 -9.234375 16 -15.347656 11.65625 -23.296875 C 7.3125 -31.253906 5.140625 -40.554688 5.140625 -51.203125 Z M 5.140625 -51.203125 "/></g></g></g><g fill="#01413e" fill-opacity="1"><g transform="translate(1008.747057, 321.90975)"><g><path d="M 58 1.46875 C 47.96875 1.46875 38.941406 -0.671875 30.921875 -4.953125 C 22.910156 -9.234375 16.609375 -15.347656 12.015625 -23.296875 C 7.429688 -31.253906 5.140625 -40.554688 5.140625 -51.203125 C 5.140625 -61.722656 7.460938 -70.988281 12.109375 -79 C 16.765625 -87.019531 23.128906 -93.171875 31.203125 -97.453125 C 39.273438 -101.734375 48.328125 -103.875 58.359375 -103.875 C 68.390625 -103.875 77.441406 -101.734375 85.515625 -97.453125 C 93.597656 -93.171875 99.960938 -87.019531 104.609375 -79 C 109.265625 -70.988281 111.59375 -61.722656 111.59375 -51.203125 C 111.59375 -40.679688 109.234375 -31.410156 104.515625 -23.390625 C 99.804688 -15.378906 93.382812 -9.234375 85.25 -4.953125 C 77.113281 -0.671875 68.03125 1.46875 58 1.46875 Z M 58 -25.6875 C 63.988281 -25.6875 69.09375 -27.890625 73.3125 -32.296875 C 77.539062 -36.703125 79.65625 -43.003906 79.65625 -51.203125 C 79.65625 -59.398438 77.601562 -65.703125 73.5 -70.109375 C 69.40625 -74.515625 64.359375 -76.71875 58.359375 -76.71875 C 52.242188 -76.71875 47.164062 -74.546875 43.125 -70.203125 C 39.09375 -65.859375 37.078125 -59.523438 37.078125 -51.203125 C 37.078125 -43.003906 39.0625 -36.703125 43.03125 -32.296875 C 47.007812 -27.890625 52 -25.6875 58 -25.6875 Z M 58 -25.6875 "/></g></g></g><g fill="#01413e" fill-opacity="1"><g transform="translate(1115.327273, 321.90975)"><g><path d="M 142.046875 -103.515625 C 154.773438 -103.515625 164.898438 -99.660156 172.421875 -91.953125 C 179.953125 -84.242188 183.71875 -73.535156 183.71875 -59.828125 L 183.71875 0 L 152.515625 0 L 152.515625 -55.609375 C 152.515625 -62.210938 150.769531 -67.316406 147.28125 -70.921875 C 143.789062 -74.535156 138.988281 -76.34375 132.875 -76.34375 C 126.757812 -76.34375 121.957031 -74.535156 118.46875 -70.921875 C 114.976562 -67.316406 113.234375 -62.210938 113.234375 -55.609375 L 113.234375 0 L 82.03125 0 L 82.03125 -55.609375 C 82.03125 -62.210938 80.285156 -67.316406 76.796875 -70.921875 C 73.316406 -74.535156 68.519531 -76.34375 62.40625 -76.34375 C 56.28125 -76.34375 51.472656 -74.535156 47.984375 -70.921875 C 44.503906 -67.316406 42.765625 -62.210938 42.765625 -55.609375 L 42.765625 0 L 11.375 0 L 11.375 -102.40625 L 42.765625 -102.40625 L 42.765625 -89.5625 C 45.941406 -93.84375 50.097656 -97.238281 55.234375 -99.75 C 60.378906 -102.257812 66.191406 -103.515625 72.671875 -103.515625 C 80.378906 -103.515625 87.257812 -101.859375 93.3125 -98.546875 C 99.375 -95.242188 104.117188 -90.535156 107.546875 -84.421875 C 111.097656 -90.046875 115.929688 -94.632812 122.046875 -98.1875 C 128.160156 -101.738281 134.828125 -103.515625 142.046875 -103.515625 Z M 142.046875 -103.515625 "/></g></g></g><g clip-path="url(#fb67b324e6)"><path fill="#447247" d="M 73.128906 47.691406 C 72.515625 47.761719 71.949219 48.039062 71.515625 48.476562 L 1.761719 118.230469 C 0.707031 119.292969 0.71875 121.011719 1.78125 122.066406 C 2.289062 122.566406 2.96875 122.847656 3.679688 122.851562 L 18.417969 122.851562 L 18.417969 172.464844 C 18.421875 173.953125 19.628906 175.160156 21.117188 175.167969 L 125.75 175.167969 C 127.242188 175.160156 128.449219 173.953125 128.453125 172.464844 L 128.453125 122.851562 L 143.191406 122.851562 C 144.6875 122.847656 145.898438 121.628906 145.890625 120.128906 C 145.890625 119.417969 145.609375 118.738281 145.109375 118.230469 L 128.105469 101.226562 L 128.105469 77.945312 C 128.101562 76.457031 126.890625 75.25 125.402344 75.246094 L 113.894531 75.246094 C 112.402344 75.25 111.195312 76.457031 111.191406 77.945312 L 111.191406 84.3125 L 75.351562 48.476562 C 74.769531 47.890625 73.949219 47.597656 73.128906 47.691406 Z M 73.128906 47.691406 " fill-opacity="1" fill-rule="nonzero"/></g><g clip-path="url(#c74d5526e7)"><path fill="#7a306c" d="M 70.84375 339.316406 C 70.160156 338.515625 69.5625 337.894531 69.050781 337.210938 C 61.199219 326.753906 52.222656 317.324219 42.628906 308.476562 C 35.953125 302.320312 29.121094 296.335938 22.480469 290.144531 C 16.839844 284.886719 11.457031 279.347656 7.613281 272.578125 C 0.710938 260.417969 0.683594 247.921875 7.28125 235.828125 C 14.101562 223.3125 25.140625 216.867188 39.457031 216.664062 C 51.523438 216.496094 61.117188 221.800781 68.75 230.933594 C 69.375 231.679688 69.960938 232.46875 70.804688 233.546875 C 71.625 232.578125 72.320312 231.804688 72.960938 230.988281 C 87.082031 212.863281 113.8125 211.691406 129.332031 228.546875 C 140.410156 240.574219 143.394531 260.699219 131.589844 276.542969 C 126.179688 283.796875 119.617188 289.90625 112.941406 295.917969 C 103.402344 304.503906 93.707031 312.929688 85.078125 322.457031 C 80.644531 327.355469 76.570312 332.574219 72.328125 337.644531 C 71.894531 338.152344 71.441406 338.640625 70.84375 339.316406 Z M 70.84375 339.316406 " fill-opacity="1" fill-rule="nonzero"/></g></g></g></g></svg>